HIERARCHY
ROOT Hips
{
	OFFSET 0.000000 201.639420 0.000000
	CHANNELS 6 Xposition Yposition Zposition Xrotation Yrotation Zrotation 
	JOINT Spine
	{
		OFFSET 0.006200 19.524994 -2.481800
		CHANNELS 3 Xrotation Yrotation Zrotation
		JOINT Spine1
		{
			OFFSET -0.007167 16.462499 -2.006233
			CHANNELS 3 Xrotation Yrotation Zrotation
			JOINT Spine1_split
			{
				OFFSET -0.007167 16.462499 -2.006233
				CHANNELS 3 Xrotation Yrotation Zrotation
				JOINT Spine2
				{
					OFFSET -0.007167 16.462499 -2.006233
					CHANNELS 3 Xrotation Yrotation Zrotation
					JOINT Neck
					{
						OFFSET -0.060000 30.701813 1.352200
						CHANNELS 3 Xrotation Yrotation Zrotation
						JOINT Head
						{
							OFFSET -0.087200 22.547607 3.670900
							CHANNELS 3 Xrotation Yrotation Zrotation
							JOINT HeadTop_End
							{
								OFFSET -0.830600 40.355194 7.893500
								CHANNELS 3 Xrotation Yrotation Zrotation
								End Site
								{
									OFFSET 0.000000 0.000000 0.000000
								}
							}
							JOINT RightEye
							{
								OFFSET -6.302100 18.118591 16.197100
								CHANNELS 3 Xrotation Yrotation Zrotation
								End Site
								{
									OFFSET 0.000000 0.000000 0.000000
								}
							}
							JOINT LeftEye
							{
								OFFSET 6.741500 18.382690 16.401899
								CHANNELS 3 Xrotation Yrotation Zrotation
								End Site
								{
									OFFSET 0.000000 0.000000 0.000000
								}
							}
						}
					}
					JOINT LeftShoulder
					{
						OFFSET 5.962450 9.115249 0.712700
						CHANNELS 3 Xrotation Yrotation Zrotation
						JOINT LeftShoulder_split
						{
							OFFSET 5.962450 9.115249 0.712700
							CHANNELS 3 Xrotation Yrotation Zrotation
							JOINT LeftArm
							{
								OFFSET 25.435989 -0.697632 -5.229300
								CHANNELS 3 Xrotation Yrotation Zrotation
								JOINT LeftForeArm
								{
									OFFSET 54.684776 0.000000 0.000000
									CHANNELS 3 Xrotation Yrotation Zrotation
									JOINT LeftHand
									{
										OFFSET 55.098175 0.000000 0.000000
										CHANNELS 3 Xrotation Yrotation Zrotation
										JOINT LeftHandMiddle1
										{
											OFFSET 23.369751 0.000000 0.000000
											CHANNELS 3 Xrotation Yrotation Zrotation
											JOINT LeftHandMiddle2
											{
												OFFSET 6.378677 0.000000 0.000000
												CHANNELS 3 Xrotation Yrotation Zrotation
												JOINT LeftHandMiddle3
												{
													OFFSET 6.148331 0.000000 0.000000
													CHANNELS 3 Xrotation Yrotation Zrotation
													JOINT LeftHandMiddle4
													{
														OFFSET 6.582504 0.000000 0.000000
														CHANNELS 3 Xrotation Yrotation Zrotation
														End Site
														{
															OFFSET 0.000000 0.000000 0.000000
														}
													}
												}
											}
										}
										JOINT LeftHandThumb1
										{
											OFFSET 7.235672 -3.848206 5.434273
											CHANNELS 3 Xrotation Yrotation Zrotation
											JOINT LeftHandThumb2
											{
												OFFSET 6.568451 -3.792297 3.792300
												CHANNELS 3 Xrotation Yrotation Zrotation
												JOINT LeftHandThumb3
												{
													OFFSET 6.063080 -3.500519 3.500518
													CHANNELS 3 Xrotation Yrotation Zrotation
													JOINT LeftHandThumb4
													{
														OFFSET 4.793182 -2.767334 2.767349
														CHANNELS 3 Xrotation Yrotation Zrotation
														End Site
														{
															OFFSET 0.000000 0.000000 0.000000
														}
													}
												}
											}
										}
										JOINT LeftHandIndex1
										{
											OFFSET 23.101074 -0.309540 4.992809
											CHANNELS 3 Xrotation Yrotation Zrotation
											JOINT LeftHandIndex2
											{
												OFFSET 6.226883 0.000000 0.000000
												CHANNELS 3 Xrotation Yrotation Zrotation
												JOINT LeftHandIndex3
												{
													OFFSET 6.094330 0.000000 0.000000
													CHANNELS 3 Xrotation Yrotation Zrotation
													JOINT LeftHandIndex4
													{
														OFFSET 5.482605 0.000000 0.000000
														CHANNELS 3 Xrotation Yrotation Zrotation
														End Site
														{
															OFFSET 0.000000 0.000000 0.000000
														}
													}
												}
											}
										}
										JOINT LeftHandRing1
										{
											OFFSET 22.299240 0.021149 -3.964172
											CHANNELS 3 Xrotation Yrotation Zrotation
											JOINT LeftHandRing2
											{
												OFFSET 6.321869 0.000000 0.000000
												CHANNELS 3 Xrotation Yrotation Zrotation
												JOINT LeftHandRing3
												{
													OFFSET 5.899796 0.000000 0.000000
													CHANNELS 3 Xrotation Yrotation Zrotation
													JOINT LeftHandRing4
													{
														OFFSET 6.517899 0.000000 0.000000
														CHANNELS 3 Xrotation Yrotation Zrotation
														End Site
														{
															OFFSET 0.000000 0.000000 0.000000
														}
													}
												}
											}
										}
										JOINT LeftHandPinky1
										{
											OFFSET 20.463791 -0.302338 -8.562233
											CHANNELS 3 Xrotation Yrotation Zrotation
											JOINT LeftHandPinky2
											{
												OFFSET 6.908646 0.000000 0.000000
												CHANNELS 3 Xrotation Yrotation Zrotation
												JOINT LeftHandPinky3
												{
													OFFSET 4.622849 0.000000 0.000000
													CHANNELS 3 Xrotation Yrotation Zrotation
													JOINT LeftHandPinky4
													{
														OFFSET 5.216080 0.000000 0.000000
														CHANNELS 3 Xrotation Yrotation Zrotation
														End Site
														{
															OFFSET 0.000000 0.000000 0.000000
														}
													}
												}
											}
										}
									}
								}
							}
						}
					}
					JOINT RightShoulder
					{
						OFFSET -6.000650 9.142044 0.674450
						CHANNELS 3 Xrotation Yrotation Zrotation
						JOINT RightShoulder_split
						{
							OFFSET -6.000650 9.142044 0.674450
							CHANNELS 3 Xrotation Yrotation Zrotation
							JOINT RightArm
							{
								OFFSET -25.308500 -0.751312 -5.164599
								CHANNELS 3 Xrotation Yrotation Zrotation
								JOINT RightForeArm
								{
									OFFSET -54.684429 0.000000 0.000000
									CHANNELS 3 Xrotation Yrotation Zrotation
									JOINT RightHand
									{
										OFFSET -55.150291 0.000000 0.000000
										CHANNELS 3 Xrotation Yrotation Zrotation
										JOINT RightHandMiddle1
										{
											OFFSET -23.317566 0.000000 0.000000
											CHANNELS 3 Xrotation Yrotation Zrotation
											JOINT RightHandMiddle2
											{
												OFFSET -6.378403 0.000000 0.000000
												CHANNELS 3 Xrotation Yrotation Zrotation
												JOINT RightHandMiddle3
												{
													OFFSET -6.148193 0.000000 0.000000
													CHANNELS 3 Xrotation Yrotation Zrotation
													JOINT RightHandMiddle4
													{
														OFFSET -6.583389 0.000000 0.000000
														CHANNELS 3 Xrotation Yrotation Zrotation
														End Site
														{
															OFFSET 0.000000 0.000000 0.000000
														}
													}
												}
											}
										}
										JOINT RightHandThumb1
										{
											OFFSET -7.190521 -3.860474 5.435846
											CHANNELS 3 Xrotation Yrotation Zrotation
											JOINT RightHandThumb2
											{
												OFFSET -6.567429 -3.791718 3.791708
												CHANNELS 3 Xrotation Yrotation Zrotation
												JOINT RightHandThumb3
												{
													OFFSET -6.062469 -3.500153 3.500166
													CHANNELS 3 Xrotation Yrotation Zrotation
													JOINT RightHandThumb4
													{
														OFFSET -4.792618 -2.767029 2.767022
														CHANNELS 3 Xrotation Yrotation Zrotation
														End Site
														{
															OFFSET 0.000000 0.000000 0.000000
														}
													}
												}
											}
										}
										JOINT RightHandIndex1
										{
											OFFSET -23.048981 -0.310791 4.992554
											CHANNELS 3 Xrotation Yrotation Zrotation
											JOINT RightHandIndex2
											{
												OFFSET -6.227539 0.000000 0.000000
												CHANNELS 3 Xrotation Yrotation Zrotation
												JOINT RightHandIndex3
												{
													OFFSET -6.095047 0.000000 0.000000
													CHANNELS 3 Xrotation Yrotation Zrotation
													JOINT RightHandIndex4
													{
														OFFSET -5.484772 0.000000 0.000000
														CHANNELS 3 Xrotation Yrotation Zrotation
														End Site
														{
															OFFSET 0.000000 0.000000 0.000000
														}
													}
												}
											}
										}
										JOINT RightHandRing1
										{
											OFFSET -22.246323 0.020569 -3.963762
											CHANNELS 3 Xrotation Yrotation Zrotation
											JOINT RightHandRing2
											{
												OFFSET -6.322128 0.000000 0.000000
												CHANNELS 3 Xrotation Yrotation Zrotation
												JOINT RightHandRing3
												{
													OFFSET -5.900024 0.000000 0.000000
													CHANNELS 3 Xrotation Yrotation Zrotation
													JOINT RightHandRing4
													{
														OFFSET -6.518356 0.000000 0.000000
														CHANNELS 3 Xrotation Yrotation Zrotation
														End Site
														{
															OFFSET 0.000000 0.000000 0.000000
														}
													}
												}
											}
										}
										JOINT RightHandPinky1
										{
											OFFSET -20.411011 -0.303314 -8.561701
											CHANNELS 3 Xrotation Yrotation Zrotation
											JOINT RightHandPinky2
											{
												OFFSET -6.907349 0.000000 0.000000
												CHANNELS 3 Xrotation Yrotation Zrotation
												JOINT RightHandPinky3
												{
													OFFSET -4.623840 0.000000 0.000000
													CHANNELS 3 Xrotation Yrotation Zrotation
													JOINT RightHandPinky4
													{
														OFFSET -5.218353 0.000000 0.000000
														CHANNELS 3 Xrotation Yrotation Zrotation
														End Site
														{
															OFFSET 0.000000 0.000000 0.000000
														}
													}
												}
											}
										}
									}
								}
							}
						}
					}
				}
			}
		}
	}
	JOINT LeftUpLeg
	{
		OFFSET 18.168400 -13.561905 -0.039000
		CHANNELS 3 Xrotation Yrotation Zrotation
		JOINT LeftLeg
		{
			OFFSET 0.577358 -80.825211 -3.695000
			CHANNELS 3 Xrotation Yrotation Zrotation
			JOINT LeftFoot
			{
				OFFSET -0.577356 -83.370262 -6.520700
				CHANNELS 3 Xrotation Yrotation Zrotation
				JOINT LeftToeBase
				{
					OFFSET 0.750401 -20.798306 25.135401
					CHANNELS 3 Xrotation Yrotation Zrotation
					JOINT LeftToe_End
					{
						OFFSET -0.000500 0.001200 19.917799
						CHANNELS 3 Xrotation Yrotation Zrotation
						End Site
						{
							OFFSET 0.000000 0.000000 0.000000
						}
					}
				}
			}
		}
	}
	JOINT RightUpLeg
	{
		OFFSET -18.162500 -13.585098 -0.041000
		CHANNELS 3 Xrotation Yrotation Zrotation
		JOINT RightLeg
		{
			OFFSET -0.595024 -80.945297 -3.631900
			CHANNELS 3 Xrotation Yrotation Zrotation
			JOINT RightFoot
			{
				OFFSET 0.595024 -83.218193 -6.561200
				CHANNELS 3 Xrotation Yrotation Zrotation
				JOINT RightToeBase
				{
					OFFSET -0.753601 -20.807106 25.115000
					CHANNELS 3 Xrotation Yrotation Zrotation
					JOINT RightToe_End
					{
						OFFSET 0.000299 0.001700 19.918200
						CHANNELS 3 Xrotation Yrotation Zrotation
						End Site
						{
							OFFSET 0.000000 0.000000 0.000000
						}
					}
				}
			}
		}
	}
}
MOTION
Frames: 5
Frame Time: 0.016667
0.374572 200.312607 -0.375375 -3.753456 -5.224849 -3.507160 3.303689 1.534728 2.479810 1.151890 0.339457 1.552798 0.000000 0.000000 0.000000 1.126015 0.361543 1.555886 5.626309 -0.078963 0.454683 -7.563345 1.375724 -0.080566 -0.000000 -0.000000 0.000000 -0.000000 -0.000000 0.000000 -0.000000 -0.000000 0.000000 1.049449 -17.442070 -12.319430 0.000000 0.000000 0.000000 3.916257 -19.989264 -69.765219 -0.000003 -1.459366 -0.000010 -33.230414 -1.364820 -6.186623 -0.076308 2.665774 -15.696837 0.268779 1.755800 -17.405544 0.300526 1.853978 -18.413331 -0.000002 0.000000 -0.000002 -0.663002 2.160312 4.832513 11.853538 25.421628 17.058314 -13.813943 3.537279 9.036016 0.000002 -0.000001 0.000000 0.019870 -0.969582 -7.593545 0.267872 1.752890 -17.375726 0.057681 0.820954 -8.038018 0.000000 -0.000000 0.000001 0.136912 3.641779 -21.133526 0.386620 2.094790 -20.911912 0.283043 1.800634 -17.865000 -0.000000 -0.000001 0.000001 0.927726 5.555914 -27.128058 0.268792 1.755839 -17.405880 0.241907 1.667705 -16.505891 0.000000 0.000000 -0.000002 1.203181 15.343660 14.705966 0.000000 0.000000 0.000000 13.158861 27.555118 58.785136 0.000002 6.693751 0.000023 -20.179084 -0.514097 6.782784 -0.136226 -2.205105 14.998892 0.214439 -1.398354 17.436867 0.239777 -1.476536 18.446271 -0.000001 0.000000 0.000001 -1.665249 -0.174479 -4.219026 12.710944 -29.825339 -16.130960 -15.549419 -3.559393 -12.707117 0.000005 -0.000002 -0.000004 0.038547 1.262294 6.823723 0.213720 -1.396021 17.407029 0.046029 -0.653856 8.053206 -0.000002 0.000002 0.000002 0.030609 -3.075770 20.451002 0.308449 -1.668272 20.948544 0.225818 -1.434041 17.897088 -0.000000 -0.000001 0.000003 0.748879 -4.885237 26.473772 0.214457 -1.398375 17.437249 0.193010 -1.328180 16.535823 -0.000001 0.000000 -0.000002 -13.008421 14.262758 10.836332 13.096333 2.098449 4.210344 2.619593 0.419505 -7.303446 -4.928528 0.000007 -0.000002 0.000000 0.000000 0.000000 -0.243978 -10.396286 3.110964 6.110688 -9.762777 -3.279712 -1.645244 -1.557836 2.850911 -7.282878 -0.000007 -0.000001 -0.000001 0.000002 -0.000000 
0.346358 200.271225 -0.335298 -3.796423 -5.196933 -3.488757 3.300326 1.534716 2.473900 1.145128 0.339118 1.547167 0.000000 0.000000 0.000000 1.119152 0.361115 1.550304 5.703477 -0.063062 0.440583 -7.513749 1.493748 -0.188455 -0.000000 -0.000000 0.000000 -0.000000 -0.000000 0.000000 -0.000000 -0.000000 0.000000 1.053184 -17.466983 -12.298066 0.000000 0.000000 0.000000 3.912330 -19.936284 -69.820885 -0.000004 -1.466730 -0.000013 -33.275620 -1.389250 -6.194997 -0.079450 2.649873 -15.642923 0.268784 1.755801 -17.405535 0.300527 1.853985 -18.413365 -0.000000 -0.000001 0.000003 -0.679728 2.124848 4.841556 11.839222 25.391945 17.067258 -13.808716 3.552168 9.037130 0.000000 0.000003 -0.000000 0.019621 -0.988693 -7.525633 0.267960 1.753177 -17.378658 0.057722 0.821242 -8.040857 0.000001 -0.000000 0.000001 0.137419 3.640725 -21.077856 0.386663 2.094905 -20.913093 0.283070 1.800712 -17.865818 0.000000 -0.000001 0.000002 0.923133 5.550017 -27.082733 0.268459 1.754778 -17.395035 0.241594 1.666641 -16.495020 -0.000001 -0.000000 0.000001 1.193451 15.359193 14.752278 0.000000 0.000000 0.000000 13.166817 27.486392 58.783791 -0.000003 6.699179 -0.000011 -20.256700 -0.523927 6.853406 -0.130856 -2.214500 14.877262 0.214224 -1.397606 17.427183 0.239517 -1.475770 18.436576 -0.000001 -0.000000 0.000000 -1.771527 0.051455 -4.255928 12.429524 -29.275372 -16.230828 -15.566061 -3.522429 -12.695175 0.000000 0.000002 0.000005 0.069479 1.342389 6.233071 0.212775 -1.393004 17.368242 0.045587 -0.650722 8.014418 -0.000002 -0.000001 -0.000002 0.038795 -3.096538 20.422689 0.308104 -1.667397 20.936908 0.225533 -1.433143 17.885446 0.000001 0.000001 0.000004 0.748129 -4.883979 26.522658 0.212753 -1.392954 17.367429 0.191392 -1.322728 16.465971 0.000000 -0.000002 -0.000003 -13.041626 14.268147 10.845259 13.268250 2.067135 4.213331 2.523338 0.414673 -7.316556 -4.928527 0.000007 -0.000001 0.000000 -0.000001 0.000000 -0.396389 -10.375970 3.059842 6.523147 -9.853963 -3.278803 -1.868248 -1.536530 2.888839 -7.282878 -0.000007 -0.000001 -0.000001 -0.000002 -0.000000 
0.312766 200.219986 -0.282337 -3.850722 -5.169013 -3.469937 3.294639 1.532852 2.468294 1.135295 0.335829 1.540166 0.000000 0.000000 0.000000 1.109179 0.357711 1.543319 5.790063 -0.041387 0.412223 -7.418567 1.656761 -0.353243 -0.000000 -0.000000 -0.000000 -0.000000 -0.000000 -0.000000 -0.000000 -0.000000 -0.000000 1.058271 -17.498506 -12.268555 0.000000 0.000000 0.000000 3.916048 -19.861249 -69.889337 -0.000003 -1.470145 -0.000002 -33.338317 -1.421990 -6.199135 -0.082427 2.633109 -15.574091 0.268783 1.755807 -17.405576 0.300528 1.853983 -18.413430 -0.000000 -0.000001 -0.000002 -0.702817 2.075406 4.857130 11.815761 25.343284 17.081955 -13.802043 3.571165 9.038516 0.000004 -0.000000 -0.000002 0.019090 -1.014106 -7.438356 0.267905 1.752998 -17.376771 0.057690 0.821040 -8.038912 -0.000001 -0.000000 0.000002 0.138420 3.639781 -20.995380 0.386635 2.094819 -20.912185 0.283013 1.800557 -17.864298 -0.000001 -0.000000 0.000004 0.921520 5.546539 -27.025708 0.268173 1.753857 -17.385615 0.241317 1.665714 -16.485602 0.000001 0.000001 0.000002 1.180659 15.378724 14.813058 0.000000 0.000000 0.000000 13.150484 27.374345 58.791400 -0.000006 6.704305 -0.000008 -20.425090 -0.517847 6.943943 -0.118068 -2.256500 14.802980 0.214041 -1.397059 17.420307 0.239343 -1.475239 18.429628 -0.000001 0.000001 -0.000001 -1.906857 0.335885 -4.282173 12.147666 -28.717776 -16.329632 -15.592574 -3.463606 -12.676166 0.000000 -0.000002 -0.000003 0.126895 1.404317 5.356992 0.210741 -1.386488 17.284217 0.044636 -0.643949 7.930469 0.000001 0.000001 0.000001 0.044151 -3.114643 20.510298 0.308481 -1.668401 20.950082 0.225866 -1.434153 17.898642 0.000000 0.000003 0.000005 0.726727 -4.850686 26.710879 0.211161 -1.387831 17.301496 0.189865 -1.317547 16.399629 -0.000002 0.000001 -0.000002 -13.083282 14.272898 10.861486 13.487520 2.035965 4.216117 2.399080 0.408740 -7.333303 -4.928528 0.000008 -0.000002 -0.000000 -0.000000 0.000000 -0.563044 -10.363073 3.002766 6.997154 -9.932102 -3.277829 -2.126440 -1.523734 2.932641 -7.282877 -0.000009 -0.000001 -0.000000 -0.000000 -0.000000 
0.273372 200.163528 -0.214618 -3.916377 -5.139635 -3.452042 3.286000 1.528273 2.464250 1.121716 0.328285 1.533198 0.000000 0.000000 0.000000 1.095418 0.350025 1.536320 5.879432 -0.012757 0.361221 -7.251727 1.872880 -0.593185 -0.000000 0.000000 0.000000 -0.000000 0.000000 0.000000 -0.000000 0.000000 0.000000 1.064707 -17.534743 -12.230646 0.000000 0.000000 0.000000 3.934542 -19.774982 -69.967672 0.000014 -1.471246 0.000010 -33.411578 -1.458501 -6.199857 -0.079750 2.641892 -15.563901 0.268759 1.755718 -17.404691 0.300498 1.853894 -18.412506 -0.000000 -0.000000 -0.000002 -0.704051 2.074248 4.846159 11.810026 25.331384 17.085566 -13.802494 3.569846 9.038416 -0.000002 -0.000000 -0.000001 0.016640 -1.020471 -7.441090 0.267656 1.752195 -17.368601 0.057575 0.820204 -8.030657 -0.000001 -0.000001 -0.000001 0.139039 3.641188 -20.990413 0.386241 2.093788 -20.901393 0.282677 1.799497 -17.853384 -0.000001 0.000000 0.000006 0.925126 5.553609 -27.027566 0.268112 1.753656 -17.383562 0.241247 1.665465 -16.483128 0.000000 -0.000001 -0.000000 1.165091 15.400651 14.886881 0.000000 0.000000 0.000000 13.098184 27.203440 58.815620 -0.000003 6.707506 0.000001 -20.723330 -0.476008 7.041501 -0.091196 -2.359740 14.816075 0.215149 -1.400546 17.465209 0.240499 -1.478710 18.474518 -0.000001 0.000003 0.000001 -2.072498 0.672053 -4.257006 11.898776 -28.219698 -16.415841 -15.633111 -3.373649 -12.647071 0.000001 -0.000001 -0.000000 0.228721 1.451224 3.985122 0.206043 -1.371253 17.088484 0.042458 -0.628143 7.734680 -0.000002 -0.000001 -0.000003 0.046894 -3.131435 20.734194 0.310851 -1.674532 21.030803 0.227882 -1.440413 17.979326 -0.000001 0.000000 0.000002 0.674686 -4.771783 27.101200 0.212515 -1.392189 17.357722 0.191149 -1.321880 16.454896 -0.000002 0.000000 -0.000000 -13.121763 14.276245 10.883130 13.732916 2.004619 4.218865 2.256746 0.402452 -7.353722 -4.928527 0.000007 -0.000002 -0.000000 -0.000000 -0.000000 -0.717762 -10.352280 2.946182 7.483431 -10.006233 -3.276841 -2.396940 -1.514387 2.978634 -7.282878 -0.000007 -0.000001 -0.000000 0.000000 0.000000 
0.228404 200.105576 -0.131845 -3.991185 -5.107084 -3.436716 3.273423 1.520347 2.463049 1.103351 0.315487 1.528201 0.000000 0.000000 0.000000 1.076831 0.337056 1.531220 5.961811 0.023748 0.278537 -6.987945 2.146432 -0.924253 -0.000000 -0.000000 -0.000000 -0.000000 -0.000000 -0.000000 -0.000000 -0.000000 -0.000000 1.072526 -17.572485 -12.183463 0.000000 0.000000 0.000000 3.973691 -19.691985 -70.053350 -0.000009 -1.471672 0.000010 -33.484821 -1.490970 -6.199726 -0.076588 2.653571 -15.566691 0.268787 1.755806 -17.405593 0.300525 1.853986 -18.413391 0.000001 0.000001 0.000004 -0.701644 2.080420 4.836521 11.805927 25.322863 17.088117 -13.802690 3.569312 9.038369 -0.000001 -0.000002 -0.000003 0.014632 -1.022312 -7.455618 0.267397 1.751389 -17.360329 0.057456 0.819363 -8.022344 -0.000002 -0.000001 -0.000002 0.139613 3.643122 -21.000479 0.385891 2.092872 -20.891816 0.282374 1.798554 -17.843702 0.000001 0.000000 -0.000000 0.929833 5.563257 -27.040628 0.268197 1.753940 -17.386484 0.241317 1.665702 -16.485461 -0.000002 -0.000002 -0.000001 1.147663 15.419869 14.969316 0.000000 0.000000 0.000000 12.996567 26.960241 58.866067 -0.000004 6.706449 -0.000005 -21.183789 -0.377223 7.124406 -0.063062 -2.472502 14.898777 0.216371 -1.404456 17.515508 0.241802 -1.482593 18.524947 -0.000001 0.000001 -0.000000 -2.249143 1.029595 -4.229645 11.683169 -27.783893 -16.489782 -15.676251 -3.278012 -12.616094 0.000004 -0.000002 -0.000001 0.338949 1.482399 2.563074 0.199760 -1.350719 16.824790 0.039630 -0.606836 7.470676 0.000002 -0.000000 -0.000002 0.046368 -3.142194 21.021260 0.313490 -1.681419 21.121443 0.230170 -1.447436 18.069926 0.000000 0.000002 -0.000001 0.609269 -4.676187 27.563083 0.214338 -1.397994 17.432328 0.192835 -1.327606 16.528298 -0.000001 0.000002 0.000002 -13.151101 14.277793 10.909367 13.987662 1.971846 4.221827 2.104787 0.396232 -7.377495 -4.928528 0.000008 -0.000001 0.000000 -0.000000 0.000000 -0.844897 -10.342856 2.896914 7.947413 -10.020436 -3.275789 -2.659866 -1.565081 3.019492 -7.282878 -0.000007 -0.000001 0.000000 0.000002 0.000000 
